# xmcd
#
# Track frame offsets:
# 150
# 11197
# 25862
# 41219
# 56436
# 69663
# 84118
# 97912
# 114886
# 127134
# 142975
# 160198
# 179179
# 194379
#
# Disc length: 2828 seconds
#
#
# Revision: 0
# Processed by: cddbd v1.5.1PL0 Copyright (c) Steve Scherf et al.
# Submitted via: FreeRIP 2.942 
#
DISCID=bd0b0a0e
DTITLE=Saudades do Sertão 2 - CD3 - Saudades do Sertão 2
DYEAR=2005
DGENRE=Sertanejo
TTITLE0=Teodoro and Sampaio - O Gavião
TTITLE1=Pedro Bento and Zé da Estrada - Pé de Primeira
TTITLE2=Cascatinha and Inhana - Índia
TTITLE3=Chico Rei and Paraná - Canário Prisioneiro
TTITLE4=Tonico and Tinoco - Cana Verde
TTITLE5=Zico and Zeca - João Ninguém
TTITLE6=As Marcianas - O Mesmo Homem
TTITLE7=Gilberto and Gilmar - Música da Saudade
TTITLE8=Renato Teixeira - Amanheceu, Peguei a Viola
TTITLE9=Liu and Léu - Boiadeiro Errante
TTITLE10=Roberta Miranda - Majestade , O Sabiá
TTITLE11=Teixeirinha - Tropeiro Velho
TTITLE12=Mensageiro and Mexicano - No Colo da Noite
TTITLE13=Abel and Caim - Mãe Amorosa
EXTD=Postado por rodmorlei
EXTT0=
EXTT1=
EXTT2=
EXTT3=
EXTT4=
EXTT5=
EXTT6=
EXTT7=
EXTT8=
EXTT9=
EXTT10=
EXTT11=
EXTT12=
EXTT13=
PLAYORDER=
